<svg width="180" height="30" viewBox="0 0 180 30" fill="none" xmlns="http://www.w3.org/2000/svg">
<path d="M173.604 9.84924C175.812 9.84924 177.399 10.2389 178.364 11.0182C179.329 11.779 179.82 12.9109 179.839 14.4139C179.857 15.6571 179.561 16.6034 178.948 17.2528C178.354 17.8837 177.362 18.1991 175.97 18.1991H168.177V16.1117H175.052C175.682 16.1117 176.081 15.9447 176.248 15.6107C176.434 15.2767 176.527 14.8685 176.527 14.386C176.508 13.6253 176.285 13.0964 175.859 12.7995C175.45 12.5027 174.745 12.3542 173.743 12.3542C172.871 12.3542 172.194 12.4748 171.712 12.716C171.229 12.9573 170.886 13.3933 170.682 14.0242C170.496 14.6551 170.403 15.5643 170.403 16.7518C170.403 18.0136 170.524 18.9877 170.765 19.6743C171.006 20.3608 171.405 20.834 171.962 21.0938C172.519 21.335 173.261 21.4556 174.189 21.4556C174.875 21.4556 175.664 21.4278 176.555 21.3721C177.464 21.3164 178.336 21.2422 179.171 21.1494L179.505 23.2926C179.004 23.4967 178.429 23.6637 177.779 23.7936C177.13 23.9235 176.452 24.0162 175.747 24.0719C175.061 24.1461 174.411 24.1832 173.799 24.1832C172.129 24.1832 170.784 23.942 169.763 23.4596C168.761 22.9586 168.028 22.1793 167.564 21.1216C167.119 20.064 166.896 18.7001 166.896 17.0302C166.896 15.2303 167.119 13.8108 167.564 12.7717C168.028 11.7141 168.752 10.9626 169.735 10.5172C170.737 10.0719 172.027 9.84924 173.604 9.84924Z" fill="white"/>
<path d="M162.015 4.64441C162.887 4.64441 163.332 5.08974 163.351 5.98039L164.102 23.8492H160.79L160.122 7.39988H159.593L156.003 20.2866C155.836 21.0473 155.363 21.4277 154.583 21.4277H152.134C151.336 21.4277 150.845 21.0473 150.659 20.2866L147.069 7.39988H146.54L145.927 23.8492H142.615L143.367 5.98039C143.404 5.08974 143.849 4.64441 144.703 4.64441H148.182C148.924 4.64441 149.388 5.02479 149.573 5.78556L152.524 16.3064C152.654 16.7518 152.756 17.1971 152.83 17.6424C152.923 18.0878 153.025 18.5331 153.136 18.9784H153.554C153.665 18.5331 153.767 18.0878 153.86 17.6424C153.953 17.1971 154.055 16.7425 154.166 16.2786L157.116 5.78556C157.283 5.02479 157.756 4.64441 158.536 4.64441H162.015Z" fill="white"/>
<path d="M132.213 3.83728C132.528 3.83728 132.936 3.84656 133.437 3.86511C133.957 3.88367 134.486 3.9115 135.024 3.94861C135.562 3.96717 136.016 4.01356 136.388 4.08778L136.109 6.34225H133.409C132.63 6.34225 132.083 6.49997 131.767 6.81541C131.452 7.13085 131.294 7.65968 131.294 8.40189V23.8492H127.926V7.9844C127.926 7.1123 128.066 6.37008 128.344 5.75776C128.622 5.14543 129.077 4.67227 129.708 4.33827C130.339 4.00428 131.174 3.83728 132.213 3.83728ZM135.358 10.1832V12.5212H125.505V10.3224L128.038 10.1832H135.358Z" fill="white"/>
<path d="M117.152 9.84924C118.822 9.84924 120.149 10.0812 121.132 10.5451C122.134 11.009 122.849 11.7697 123.275 12.8274C123.721 13.885 123.943 15.286 123.943 17.0302C123.943 18.7744 123.721 20.1753 123.275 21.2329C122.849 22.272 122.134 23.0328 121.132 23.5153C120.149 23.9791 118.822 24.2111 117.152 24.2111C115.519 24.2111 114.202 23.9791 113.2 23.5153C112.216 23.0328 111.502 22.272 111.057 21.2329C110.611 20.1753 110.389 18.7744 110.389 17.0302C110.389 15.286 110.611 13.885 111.057 12.8274C111.502 11.7697 112.216 11.009 113.2 10.5451C114.202 10.0812 115.519 9.84924 117.152 9.84924ZM117.152 12.4099C116.336 12.4099 115.686 12.549 115.204 12.8274C114.74 13.0871 114.406 13.551 114.202 14.219C113.998 14.887 113.896 15.8241 113.896 17.0302C113.896 18.2363 113.998 19.1733 114.202 19.8413C114.406 20.5093 114.74 20.9732 115.204 21.2329C115.686 21.4927 116.336 21.6226 117.152 21.6226C117.987 21.6226 118.646 21.4927 119.128 21.2329C119.611 20.9732 119.945 20.5093 120.13 19.8413C120.334 19.1733 120.436 18.2363 120.436 17.0302C120.436 15.8241 120.334 14.887 120.13 14.219C119.945 13.551 119.611 13.0871 119.128 12.8274C118.646 12.549 117.987 12.4099 117.152 12.4099Z" fill="white"/>
<path d="M103.817 10.1832L98.6961 24.2667C98.4549 24.9162 98.1488 25.5563 97.7776 26.1872C97.4251 26.8366 96.9705 27.4211 96.4138 27.9407C95.8572 28.4602 95.1985 28.8685 94.4377 29.1653C93.6769 29.4622 92.7955 29.5736 91.7935 29.4993L91.5152 27.4954C92.6285 27.1799 93.4914 26.7531 94.1037 26.215C94.7346 25.6769 95.2263 24.9904 95.5788 24.1554L96.3303 22.3741C96.4973 21.9659 96.655 21.502 96.8035 20.9824C96.9705 20.4443 97.1097 19.9804 97.221 19.5908L100.199 10.1832H103.817ZM92.7955 10.1832L95.8293 19.5908C95.9221 19.9062 96.0056 20.2309 96.0798 20.5649C96.1541 20.8804 96.219 21.1958 96.2747 21.5113H96.9705L95.9128 23.8492H95.0222C94.7624 23.8492 94.5305 23.775 94.3264 23.6266C94.1222 23.4781 93.9831 23.274 93.9089 23.0142L89.2051 10.1832H92.7955Z" fill="white"/>
<path d="M83.6129 9.84924C84.819 9.84924 85.7375 10.174 86.3684 10.8234C87.0178 11.4543 87.3425 12.382 87.3425 13.6067V23.8492H84.0026V14.6365C83.984 13.95 83.8448 13.4583 83.5851 13.1614C83.3253 12.8459 82.8707 12.6882 82.2213 12.6882C81.8316 12.6882 81.4512 12.7532 81.0801 12.883C80.7275 12.9944 80.3286 13.1799 79.8833 13.4397C79.438 13.6995 78.8998 14.0427 78.269 14.4695L78.0741 12.4377C79.0205 11.5656 79.9297 10.9162 80.8018 10.4894C81.6924 10.0626 82.6295 9.84924 83.6129 9.84924ZM69.2789 10.1832L69.6129 12.8552L69.9469 13.2449V23.8492H66.5791V10.1832H69.2789ZM74.9012 9.84924C76.0887 9.84924 76.9979 10.1647 77.6288 10.7956C78.2597 11.4264 78.5751 12.3635 78.5751 13.6067V23.8492H75.3465V14.6365C75.3465 13.9129 75.1981 13.4119 74.9012 13.1335C74.6043 12.8367 74.159 12.6882 73.5652 12.6882C73.1941 12.6882 72.823 12.7439 72.4519 12.8552C72.0808 12.9665 71.6725 13.1521 71.2272 13.4119C70.7819 13.6716 70.2252 14.0242 69.5572 14.4695L69.3624 12.4377C70.2902 11.5656 71.1994 10.9162 72.09 10.4894C72.9807 10.0626 73.9177 9.84924 74.9012 9.84924Z" fill="white"/>
<path d="M57.8956 10.1832L58.3409 12.8552L58.6471 13.2449V23.8492H55.2793V10.1832H57.8956ZM64.5755 9.84924L64.2415 12.9665H63.2674C62.5437 12.9665 61.8108 13.0871 61.0686 13.3284C60.3263 13.5696 59.3986 13.9314 58.2853 14.4139L58.0626 12.4377C59.0275 11.6213 60.0109 10.9904 61.0129 10.5451C62.0149 10.0812 62.9798 9.84924 63.9075 9.84924H64.5755Z" fill="white"/>
<path d="M46.4652 4.64441C46.7621 4.64441 47.0219 4.72791 47.2445 4.89491C47.4672 5.0619 47.6249 5.28457 47.7177 5.5629L53.5348 23.8492H49.9722L45.5746 9.04203C45.5003 8.74514 45.4261 8.44825 45.3519 8.15137C45.2777 7.85448 45.2127 7.56688 45.1571 7.28855H44.3777C44.3221 7.56688 44.2571 7.85448 44.1829 8.15137C44.1087 8.44825 44.0252 8.74514 43.9324 9.04203L39.5626 23.8492H36L41.8171 5.5629C41.8913 5.28457 42.0398 5.0619 42.2624 4.89491C42.5036 4.72791 42.7727 4.64441 43.0696 4.64441H46.4652ZM49.6938 15.6384V18.3661H39.8131V15.6384H49.6938Z" fill="white"/>
<path fill-rule="evenodd" clip-rule="evenodd" d="M14.5 0C22.5081 0 29 6.49187 29 14.5C29 18.5041 27.3768 22.1288 24.7528 24.7528L23.1852 26.1122C20.7643 27.9257 17.7576 29 14.5 29C11.2424 29 8.2357 27.9257 5.81483 26.1122L4.24721 24.7528C1.62323 22.1288 0 18.5041 0 14.5C0 6.49187 6.49187 0 14.5 0ZM10.421 23.4029C9.94118 23.8826 10.0701 24.6905 10.7076 24.9226C11.8908 25.3532 13.1679 25.5882 14.5 25.5882C15.8318 25.5882 17.1086 25.3531 18.2915 24.9225C18.9291 24.6905 19.058 23.8826 18.5783 23.4029L15.207 20.0322C14.8165 19.6417 14.1835 19.6417 13.793 20.0321L10.421 23.4029ZM14.5 3.41176C8.37614 3.41176 3.41176 8.37614 3.41176 14.5C3.41176 17.2023 4.37848 19.6789 5.98494 21.6027C6.33893 22.0266 6.97602 22.024 7.36654 21.6335L13.7929 15.2071C14.1834 14.8166 14.8166 14.8166 15.2071 15.2071L21.6335 21.6335C22.024 22.024 22.6611 22.0266 23.0151 21.6027C24.6215 19.6789 25.5882 17.2023 25.5882 14.5C25.5882 8.37614 20.6239 3.41176 14.5 3.41176Z" fill="white"/>
</svg>
